<?xml version="1.0" encoding="UTF-8"?>
<svg id="Capa_1" xmlns="http://www.w3.org/2000/svg" version="1.1" viewBox="0 0 1000 150">
  <!-- Generator: Adobe Illustrator 30.2.1, SVG Export Plug-In . SVG Version: 2.1.1 Build 1)  -->
  <defs>
    <style>
      .st0 {
        fill: #ffb32c;
      }
    </style>
  </defs>
  <path class="st0" d="M208.11,29.8l-38.23,90.4h-29.96L101.7,29.8h32.8l21.56,52.82,22.08-52.82h29.96Z"/>
  <path class="st0" d="M208.51,29.8h30.48v90.4h-30.48V29.8Z"/>
  <path class="st0" d="M326.29,97.21v22.99h-75.16V29.8h73.48v22.99h-43.52v10.59h38.23v21.95h-38.23v11.88h45.2Z"/>
  <path class="st0" d="M424.57,29.8v90.4h-25.05l-34.35-41.07v41.07h-29.7V29.8h25.05l34.35,41.07V29.8h29.7Z"/>
  <path class="st0" d="M498.32,104.44h-34.35l-6.07,15.76h-31l39.52-90.4h29.96l39.52,90.4h-31.51l-6.07-15.76ZM489.93,82.49l-8.78-22.73-8.78,22.73h17.56Z"/>
  <path class="st0" d="M654.98,96.96l8.52,7.23-15.63,17.7-9.56-8.27c-8.65,5.55-18.85,8.65-30.22,8.65-21.7,0-37.71-11.1-37.71-26.21,0-11.37,5.55-19.37,17.57-26.09-5.3-5.68-7.75-11.37-7.75-17.3,0-14.47,12.92-24.41,32.55-24.41,17.95,0,29.96,8.91,29.96,22.86,0,9.17-5.04,16.14-15.63,22.08l9.56,8.13c1.55-3.49,2.71-7.49,3.48-11.75l23.38,6.98c-1.68,7.49-4.52,14.33-8.52,20.4ZM620.5,98.37l-16.53-14.2c-3.62,2.58-5.03,5.29-5.03,8.65,0,4.27,4.13,7.75,11.37,7.75,3.48,0,6.97-.77,10.2-2.2ZM606.68,52.27c0,2.2.91,3.87,4.52,7.23,5.29-2.84,7.1-5.29,7.1-7.75,0-2.72-1.81-4.65-5.43-4.65-4,0-6.2,2.2-6.2,5.17Z"/>
  <path class="st0" d="M704.71,75c0-27.77,21.31-47.27,50.36-47.27,17.69,0,31.64,6.46,40.55,18.08l-19.24,17.18c-5.3-6.72-11.62-10.59-19.76-10.59-12.65,0-21.18,8.79-21.18,22.6s8.53,22.6,21.18,22.6c8.14,0,14.47-3.88,19.76-10.59l19.24,17.18c-8.91,11.62-22.86,18.08-40.55,18.08-29.06,0-50.36-19.5-50.36-47.26Z"/>
  <path class="st0" d="M796.28,75c0-27.38,21.56-47.27,51.01-47.27s51.01,19.89,51.01,47.27-21.56,47.26-51.01,47.26-51.01-19.89-51.01-47.26ZM867.56,75c0-14.08-9.04-22.6-20.28-22.6s-20.28,8.53-20.28,22.6,9.04,22.6,20.28,22.6,20.28-8.52,20.28-22.6Z"/>
</svg>